<svg id="Layer_1" data-name="Layer 1" xmlns="http://www.w3.org/2000/svg" viewBox="0 0 275.414 68.805"><defs><style>.cls-1{fill:#5befff;}.cls-2{fill:#2e8bfc;}.cls-3{fill:#888;}</style></defs><path class="cls-1" d="M48.276,16.272a6.824,6.824,0,0,0,1.46,4.222c.224.247.459.484.672.741a6.855,6.855,0,0,0,10.268-9.007c-.251-.3-.5-.6-.766-.884a6.859,6.859,0,0,0-11.634,4.928Z"/><path class="cls-2" d="M55.14,45.669a6.835,6.835,0,0,0-4.731,1.9c-.214.259-.45.5-.676.746a20.734,20.734,0,1,1,0-27.82,6.858,6.858,0,0,1,10.174-9.15,34.4,34.4,0,1,0,0,46.115c.259-.287.51-.582.76-.878A6.854,6.854,0,0,0,55.14,45.669Z"/><path class="cls-3" d="M111.215,44.034l2.075,5.158a15.513,15.513,0,0,1-5.093,2.2,21.91,21.91,0,0,1-5.347.818,16.446,16.446,0,0,1-8.3-2.013,13.788,13.788,0,0,1-5.44-5.628,17.77,17.77,0,0,1-1.92-8.459,17.626,17.626,0,0,1,1.92-8.395,13.691,13.691,0,0,1,5.5-5.63,16.811,16.811,0,0,1,8.365-2.011,20.916,20.916,0,0,1,5.283.848,15.988,15.988,0,0,1,5.093,2.232l-2.011,5.032a32.189,32.189,0,0,0-4.308-1.573,15.54,15.54,0,0,0-4.057-.5,7.607,7.607,0,0,0-6.132,2.83,11.081,11.081,0,0,0-2.421,7.169,10.943,10.943,0,0,0,2.295,7.231,7.56,7.56,0,0,0,6.131,2.768,16.347,16.347,0,0,0,4.215-.5A24.506,24.506,0,0,0,111.215,44.034Z"/><path class="cls-3" d="M146.872,31.771V51.393h-7.043V32.211q0-6.351-4.779-6.351-3.773,0-8.867,4.214V51.393H119.14V7.685l7.043-.691V23.722a25.076,25.076,0,0,1,5.344-2.8,14.922,14.922,0,0,1,5.22-1.038Q146.873,19.885,146.872,31.771Z"/><path class="cls-3" d="M160.957,51.393h-7.043v-30.5h3.773l2.328,5.03a31.03,31.03,0,0,1,5.187-3.46,11.177,11.177,0,0,1,5.126-1.57l1.446,5.658a11.8,11.8,0,0,0-5.283,1.573,26.726,26.726,0,0,0-5.534,3.836Z"/><path class="cls-3" d="M203.723,44.538a13.852,13.852,0,0,1-5.534,5.66,16.814,16.814,0,0,1-8.365,2.013,16.448,16.448,0,0,1-8.3-2.013,13.788,13.788,0,0,1-5.44-5.628,17.781,17.781,0,0,1-1.919-8.459,17.637,17.637,0,0,1,1.919-8.395,13.7,13.7,0,0,1,5.5-5.63,18.464,18.464,0,0,1,16.7-.031,13.493,13.493,0,0,1,5.47,5.628,17.834,17.834,0,0,1,1.92,8.428A17.6,17.6,0,0,1,203.723,44.538Zm-7.705-1.257a10.723,10.723,0,0,0,2.358-7.107,11.087,11.087,0,0,0-2.294-7.263,8.086,8.086,0,0,0-12.263.031,11.076,11.076,0,0,0-2.422,7.169,10.943,10.943,0,0,0,2.3,7.231,7.561,7.561,0,0,0,6.132,2.768A7.676,7.676,0,0,0,196.018,43.281Z"/><path class="cls-3" d="M218.06,51.393h-7.043v-30.5h4.718l1.256,3.647a22.328,22.328,0,0,1,5.787-3.4,15.968,15.968,0,0,1,5.911-1.259q5.345,0,7.735,3.176t2.391,8.71V51.393h-7.107V32.211q0-6.351-4.718-6.351-3.834,0-8.93,4.214Z"/><path class="cls-3" d="M273.464,44.538a13.846,13.846,0,0,1-5.534,5.66,16.811,16.811,0,0,1-8.365,2.013,16.453,16.453,0,0,1-8.3-2.013,13.794,13.794,0,0,1-5.44-5.628,17.781,17.781,0,0,1-1.919-8.459,17.637,17.637,0,0,1,1.919-8.395,13.7,13.7,0,0,1,5.5-5.63,18.462,18.462,0,0,1,16.7-.031,13.489,13.489,0,0,1,5.471,5.628,17.834,17.834,0,0,1,1.919,8.428A17.6,17.6,0,0,1,273.464,44.538Zm-7.7-1.257a10.723,10.723,0,0,0,2.358-7.107,11.087,11.087,0,0,0-2.3-7.263,7.53,7.53,0,0,0-6.131-2.8,7.607,7.607,0,0,0-6.132,2.83,11.075,11.075,0,0,0-2.421,7.169,10.943,10.943,0,0,0,2.295,7.231,7.56,7.56,0,0,0,6.131,2.768A7.678,7.678,0,0,0,265.76,43.281Z"/></svg>